<?xml version="1.0" encoding="utf-8"?>
<!-- Generator: Adobe Illustrator 21.1.0, SVG Export Plug-In . SVG Version: 6.00 Build 0)  -->
<svg version="1.1" id="Layer_1" xmlns="http://www.w3.org/2000/svg" xmlns:xlink="http://www.w3.org/1999/xlink" x="0px" y="0px"
	 viewBox="0 0 56 41" style="enable-background:new 0 0 56 41;" xml:space="preserve">
<style type="text/css">
	.st0{fill:#3A3A3A;}

	@media screen and (max-width: 80px) {
		.st0{fill:#fff;}
	}
</style>
<g>
	<path class="st0" d="M54.5,9.9l-8.6,4.9L45.7,15L37,20l0-5.7c-5.1,0.6-9.6,2.8-13.2,6.1c-0.5,0.5-1.1,1-1.6,1.6
		c-0.2,0.2-0.4,0.4-0.5,0.6c-1.1,1.2-2.2,2.3-3.4,3.3c-4.3,3.7-9.5,6.1-14.8,7c-0.6,0.1-2.2,0.1-2.8,0.2v-7.6c0.4,0,0.7-0.1,1.1-0.2
		c4-0.7,7.8-2.3,11-4.9c1.1-0.9,2.1-1.8,3-2.9c0.2-0.2,0.6-0.7,0.6-0.7c0.6-0.7,1.2-1.3,1.9-1.9c5-4.7,11.5-7.7,18.7-8.4l0-6.7
		l8.7,5.1l7.7,4.5L54.5,9.9z"/>
	<path class="st0" d="M45.9,25.9l-0.2-0.1l-8.5-4.9L37,21.1l0,5.4c-4.5-0.6-8.6-2.4-12-5.1c-0.7,0.7-1.9,1.9-2.3,2.5
		c-0.6,0.7-2.3,2.3-3.1,3.1c4.8,4.1,10.8,6.7,17.5,7.4l0,6.6l8.7-5.1l7.7-4.5l1-0.6L45.9,25.9z"/>
	<path class="st0" d="M11.4,19.4c-2.9-2-6.2-3.4-9.6-3.9c-0.4-0.1-0.7-0.1-1.1-0.2l0-7.7C1.3,7.6,3,7.7,3.5,7.8C4.8,8,6,8.4,7.3,8.7
		c3.4,1.1,6.7,2.8,9.7,5c-0.7,0.7-1.7,1.7-2.2,2.3C14.2,16.9,12.2,18.7,11.4,19.4z"/>
</g>
</svg>
