<?xml version="1.0" encoding="utf-8"?>
<!-- Generator: Adobe Illustrator 21.1.0, SVG Export Plug-In . SVG Version: 6.00 Build 0)  -->
<svg version="1.1" id="Layer_1" xmlns="http://www.w3.org/2000/svg" xmlns:xlink="http://www.w3.org/1999/xlink" x="0px" y="0px"
	 viewBox="0 0 99.2 43.1" style="enable-background:new 0 0 99.2 43.1;" xml:space="preserve">
<style type="text/css">
	.st0{fill:#3A3A3A;}
	.st1{font-family:'NeuzeitSLTStd-Book';}
	.st2{font-size:10.2536px;}
	@media screen and (max-width: 80px) {
		.st0{fill:#fff;}
	}
</style>
<g>
	<text transform="matrix(1 0 0 1 43.6771 18.6871)" class="st0 st1 st2">FREE</text>
	<path class="st0" d="M18.4,37c0,3.2,2.6,5.9,5.8,5.9c3.2,0,5.9-2.6,5.9-5.8c0-3.2-2.6-5.9-5.8-5.9C21,31.2,18.4,33.8,18.4,37z"/>
	<path class="st0" d="M47.9,37.2c0,3.2,2.6,5.9,5.8,5.9c3.2,0,5.9-2.6,5.9-5.8c0-3.2-2.6-5.9-5.8-5.9C50.6,31.3,47.9,34,47.9,37.2z"
		/>
	<path class="st0" d="M55.5,30.6l6.3,0l6.3,0l6.3,0l0,6.6l-11.6-0.1l-1.1,0l-1.2,0C60.6,34.1,58.4,31.4,55.5,30.6z"/>
	<path class="st0" d="M0,30.1l0,6.7L13.9,37l3.5,0c0-3.8,3.1-6.8,6.8-6.8c3.8,0,6.8,3.1,6.8,6.8l3.2,0l6.5,0l6.2,0
		c0-3.2,2.2-5.9,5.2-6.6l-11.4-0.1l-6.5,0l0.1-25.6l-13-0.1l-9.3,14.8l-8.8,0l0,10.5L0,30.1z M17.5,19.6l5.6-11.4l7.1,0l-0.1,11.4
		L17.5,19.6z"/>
	<path class="st0" d="M36.3,29l0.2-29l37.9,0.2l-0.2,29L36.3,29z M39.9,3.5l-0.1,21.9l30.9,0.2l0.1-21.9L39.9,3.5z"/>
	<rect x="77.3" y="0.1" class="st0" width="11.8" height="3.2"/>
	<rect x="77.3" y="5.8" class="st0" width="15" height="3.2"/>
	<rect x="77.3" y="11.4" class="st0" width="18.3" height="3.2"/>
	<rect x="77.3" y="17.1" class="st0" width="21.9" height="3.2"/>
	<rect x="77.3" y="22.8" class="st0" width="18.3" height="3.2"/>
	<rect x="77.3" y="28.5" class="st0" width="15" height="3.2"/>
	<rect x="77.3" y="34.1" class="st0" width="11.8" height="3.2"/>
</g>
</svg>
