<?xml version="1.0" encoding="utf-8"?>
<!-- Generator: Adobe Illustrator 21.1.0, SVG Export Plug-In . SVG Version: 6.00 Build 0)  -->
<svg version="1.1" id="Layer_1" xmlns="http://www.w3.org/2000/svg" xmlns:xlink="http://www.w3.org/1999/xlink" x="0px" y="0px"
	 viewBox="0 0 43 50" style="enable-background:new 0 0 43 50;" xml:space="preserve">
<style type="text/css">
	.st0{fill:#3A3A3A;}
	@media screen and (max-width: 80px) {
		.st0{fill:#fff;}
	}
</style>
<g>
	<path class="st0" d="M33.3,2.9c-1.3-1.3-3-2-4.7-2H14.6c-1.7,0-3.4,0.7-4.7,2c-1.3,1.3-2,3.1-2,4.8V20H0.6v30.1H42V20H13.9V9
		c0-0.6,0.2-1.2,0.7-1.6c0.4-0.4,1-0.7,1.6-0.7h11c0.6,0,1.1,0.2,1.6,0.7c0.4,0.4,0.7,1,0.7,1.6v12.9c0,0.6,5.9,0.6,5.9,0V7.7
		C35.2,6,34.6,4.2,33.3,2.9z M23.5,35.6v3.8h-4.3v-3.8c-1.2-0.6-2.1-1.7-2.1-3c0-1.9,1.9-3.5,4.2-3.5c2.3,0,4.2,1.6,4.2,3.5
		C25.6,33.9,24.8,35,23.5,35.6z"/>
</g>
</svg>
