<?xml version="1.0" encoding="utf-8"?>
<!-- Generator: Adobe Illustrator 21.1.0, SVG Export Plug-In . SVG Version: 6.00 Build 0)  -->
<svg version="1.1" id="Layer_1" xmlns="http://www.w3.org/2000/svg" xmlns:xlink="http://www.w3.org/1999/xlink" x="0px" y="0px"
	 viewBox="0 0 78 45" style="enable-background:new 0 0 78 45;" xml:space="preserve">
<style type="text/css">
	.st0{fill:#3A3A3A;}
	@media screen and (max-width: 80px) {
		.st0{fill:#fff;}
	}
</style>
<g>
	<path class="st0" d="M52,32.3c-3.3,0-6,2.7-6,6c0,3.3,2.7,6,6,6c3.3,0,6-2.7,6-6C58,35,55.3,32.3,52,32.3z"/>
	<path class="st0" d="M21.7,32.5c-3.3,0-6,2.7-6,6c0,3.3,2.7,6,6,6c3.3,0,6-2.7,6-6C27.7,35.2,25,32.5,21.7,32.5z"/>
	<path class="st0" d="M20,31.7l-6.5,0l-6.5,0l-6.5,0l0,6.8l11.9-0.1l1.1,0l1.2,0C14.7,35.3,16.9,32.5,20,31.7z"/>
	<path class="st0" d="M73.5,31.2l0-10.7l-9.1,0L54.9,5.3L41.6,5.4l0.1,26.2l-6.6,0l-11.6,0.1c3,0.8,5.3,3.5,5.3,6.8l6.4,0l6.6,0
		l3.3,0c0-3.9,3.1-7,6.9-7c3.9,0,7,3.1,7,6.9l3.6,0l14.3-0.2l0-6.9L73.5,31.2z M45.9,20.5L45.8,8.8l7.3,0l5.8,11.7L45.9,20.5z"/>
	<path class="st0" d="M0.8,30.3L0.7,0.6l38.9-0.2l0.2,29.7L0.8,30.3z M4.3,4.2l0.1,22.5l31.6-0.2L35.9,4L4.3,4.2z"/>
</g>
</svg>
